<svg xmlns="http://www.w3.org/2000/svg" width="327" height="327" viewBox="0 0 327 327"><defs><style></style></defs><path class="a" d="M77.593,38.8A38.8,38.8,0,1,0,0,38.8V288.2H.017c0,.111-.017.222-.017.333A38.506,38.506,0,0,0,38.464,327H327V38.8ZM315.915,315.915H38.464A27.713,27.713,0,1,1,66.508,288.2H77.593V49.881H315.915Z"/><path d="M50.463,31.033a5.546,5.546,0,0,0,6.4-9.062L47.8,15.581a5.547,5.547,0,1,0-6.4,9.062Z" transform="translate(177.412 66.186)"/><path class="a" d="M37,45.542a5.537,5.537,0,0,0,5.542,5.542H53.627a5.542,5.542,0,0,0,0-11.085H42.542A5.537,5.537,0,0,0,37,45.542Z" transform="translate(168.068 181.695)"/><path class="a" d="M55.365,34.493a5.546,5.546,0,0,0,6.4-9.062L52.7,19.041A5.547,5.547,0,1,0,46.3,28.1Z" transform="translate(199.678 81.903)"/><path class="a" d="M45.561,27.57a5.546,5.546,0,0,0,6.4-9.062L42.9,12.118a5.547,5.547,0,1,0-6.4,9.062Z" transform="translate(155.145 50.473)"/><path class="a" d="M60.275,37.953a5.543,5.543,0,0,0,6.385-9.062L57.6,22.5a5.544,5.544,0,1,0-6.39,9.062Z" transform="translate(221.942 97.619)"/><path class="a" d="M47.169,45.542A5.537,5.537,0,0,0,41.627,40H30.542a5.542,5.542,0,1,0,0,11.085H41.627A5.537,5.537,0,0,0,47.169,45.542Z" transform="translate(113.559 181.695)"/><path class="a" d="M51,31.925V43.01a5.542,5.542,0,1,0,11.085,0V31.925a5.542,5.542,0,1,0-11.085,0Z" transform="translate(231.661 119.841)"/><path class="a" d="M43,45.542a5.537,5.537,0,0,0,5.542,5.542H59.627a5.542,5.542,0,1,0,0-11.085H48.542A5.537,5.537,0,0,0,43,45.542Z" transform="translate(195.322 181.695)"/><path class="a" d="M31,45.542a5.537,5.537,0,0,0,5.542,5.542H47.627a5.542,5.542,0,1,0,0-11.085H36.542A5.537,5.537,0,0,0,31,45.542Z" transform="translate(140.814 181.695)"/><path class="a" d="M56.542,54.552a5.537,5.537,0,0,0,5.542-5.542V37.925a5.542,5.542,0,1,0-11.085,0V49.01A5.537,5.537,0,0,0,56.542,54.552Z" transform="translate(231.661 147.096)"/><path class="a" d="M60.085,47.345H54.542a5.542,5.542,0,0,0,0,11.085H71.169v-14.5a5.542,5.542,0,1,0-11.085,0Z" transform="translate(222.576 174.35)"/><path class="a" d="M34.809,30.676A5.561,5.561,0,0,0,38,29.662l9.056-6.39a5.547,5.547,0,1,0-6.4-9.062L31.6,20.6a5.546,5.546,0,0,0,3.209,10.076Z" transform="translate(132.881 59.942)"/><path class="a" d="M24.542,51.085H35.627a5.542,5.542,0,1,0,0-11.085H24.542a5.542,5.542,0,1,0,0,11.085Z" transform="translate(86.305 181.695)"/><path class="a" d="M22.542,52.169a5.537,5.537,0,0,0,5.542-5.542V35.542a5.542,5.542,0,0,0-11.085,0V46.627A5.537,5.537,0,0,0,22.542,52.169Z" transform="translate(77.22 136.271)"/><path class="a" d="M25.005,37.6A5.561,5.561,0,0,0,28.2,36.581l9.056-6.39a5.547,5.547,0,0,0-6.4-9.062L21.8,27.519A5.546,5.546,0,0,0,25.005,37.6Z" transform="translate(88.347 91.376)"/><path class="a" d="M22.542,58.169a5.537,5.537,0,0,0,5.542-5.542V41.542a5.542,5.542,0,0,0-11.085,0V52.627A5.537,5.537,0,0,0,22.542,58.169Z" transform="translate(77.22 163.525)"/><path class="a" d="M22.542,46.169a5.537,5.537,0,0,0,5.542-5.542V29.542a5.542,5.542,0,0,0-11.085,0V40.627A5.537,5.537,0,0,0,22.542,46.169Z" transform="translate(77.22 109.017)"/><path class="a" d="M29.907,34.132A5.561,5.561,0,0,0,33.1,33.118l9.056-6.39a5.547,5.547,0,0,0-6.4-9.062L26.7,24.056a5.546,5.546,0,0,0,3.209,10.076Z" transform="translate(110.614 75.663)"/><rect class="a" width="72" height="44" transform="translate(227 255)"/><path class="a" d="M44.169,40.542A5.537,5.537,0,0,0,38.627,35H27.542a5.542,5.542,0,1,0,0,11.085H38.627A5.537,5.537,0,0,0,44.169,40.542Z" transform="translate(99.932 158.983)"/><path class="a" d="M35.542,27A5.537,5.537,0,0,0,30,32.542V43.627a5.542,5.542,0,1,0,11.085,0V32.542A5.537,5.537,0,0,0,35.542,27Z" transform="translate(136.271 122.644)"/><path class="a" d="M22,34.542V45.627a5.542,5.542,0,1,0,11.085,0V34.542a5.542,5.542,0,1,0-11.085,0Z" transform="translate(99.932 131.729)"/><path class="a" d="M33.542,55.169H44.627a5.537,5.537,0,0,0,5.542-5.542V38.542a5.542,5.542,0,1,0-11.085,0v5.542H33.542a5.542,5.542,0,0,0,0,11.085Z" transform="translate(127.186 149.898)"/><path class="a" d="M29.542,38.085H40.627a5.542,5.542,0,0,0,0-11.085H29.542a5.542,5.542,0,0,0,0,11.085Z" transform="translate(109.017 122.644)"/><path class="a" d="M43.542,46.085H54.627a5.542,5.542,0,0,0,0-11.085H43.542a5.542,5.542,0,1,0,0,11.085Z" transform="translate(172.61 158.983)"/><path class="a" d="M46,32.542V43.627a5.542,5.542,0,1,0,11.085,0V32.542a5.542,5.542,0,1,0-11.085,0Z" transform="translate(208.949 122.644)"/><path class="a" d="M40,32.542a5.537,5.537,0,0,0,5.542,5.542H56.627a5.542,5.542,0,0,0,0-11.085H45.542A5.537,5.537,0,0,0,40,32.542Z" transform="translate(181.695 122.644)"/><path class="a" d="M60.627,55.169a5.537,5.537,0,0,0,5.542-5.542V38.542a5.542,5.542,0,1,0-11.085,0v5.542H49.542a5.542,5.542,0,1,0,0,11.085Z" transform="translate(199.864 149.898)"/><path class="a" d="M43.542,51.169a5.537,5.537,0,0,0,5.542-5.542V34.542a5.542,5.542,0,0,0-11.085,0V45.627A5.537,5.537,0,0,0,43.542,51.169Z" transform="translate(172.61 131.729)"/><path class="a" d="M65.254,46H37.542a5.542,5.542,0,1,0,0,11.085H65.254a5.542,5.542,0,1,0,0-11.085Z" transform="translate(145.356 208.949)"/><path class="a" d="M74.339,49h-38.8a5.542,5.542,0,1,0,0,11.085h38.8a5.542,5.542,0,1,0,0-11.085Z" transform="translate(136.271 222.576)"/><path class="a" d="M87.966,52H32.542a5.542,5.542,0,1,0,0,11.085H87.966a5.542,5.542,0,1,0,0-11.085Z" transform="translate(122.644 236.203)"/></svg>
