<svg xmlns="http://www.w3.org/2000/svg" width="21.125" height="20.257" viewBox="0 0 21.125 20.257"><defs></defs><g transform="translate(0.15 0.15)"><path class="a" d="M93.107,84.418a.434.434,0,0,0,.427.441h.007a.434.434,0,0,0,.434-.427,60.077,60.077,0,0,0-1.624-11.82.434.434,0,1,0-.845.2A59.132,59.132,0,0,1,93.107,84.418Z" transform="translate(-87.772 -69.771)"/><path  d="M17.219,25.238a57.743,57.743,0,0,1,1.853-12.282.4.4,0,0,0,.017-.12c0-1.415-5.04-2.169-8.677-2.169s-8.677.754-8.677,2.169a.435.435,0,0,0,.017.121A57.743,57.743,0,0,1,3.606,25.239C1.889,25.645,0,26.37,0,27.587c0,1.994,5.238,3.037,10.412,3.037s10.412-1.043,10.412-3.037C20.825,26.37,18.936,25.645,17.219,25.238ZM2.629,12.87c.47-.44,3.4-1.335,7.783-1.335s7.313.9,7.783,1.335c-.744,2.67-1.967,9.274-1.829,12.732,0,0,0,0,0,0s0,.017,0,.027c0,.093.01.181.016.269.01.154.023.3.038.429,0,.021,0,.046.006.067-.111.027-.247.058-.4.093a27.125,27.125,0,0,1-5.614.664c-.263,0-.541-.01-.826-.026a39.038,39.038,0,0,1-4.823-.673L4.4,26.382c0-.022,0-.048.006-.069.015-.128.026-.266.036-.413.006-.095.012-.191.016-.292v0C4.6,22.149,3.374,15.541,2.629,12.87Zm7.783,16.886c-5.827,0-9.545-1.284-9.545-2.169,0-.277.578-.908,2.686-1.443a4.733,4.733,0,0,1-.072.483.434.434,0,0,0,.33.515,38.111,38.111,0,0,0,6.6.878c.423,0,.842-.013,1.25-.036a28.377,28.377,0,0,0,5.373-.848.433.433,0,0,0,.309-.509,4.484,4.484,0,0,1-.073-.483c2.108.535,2.686,1.167,2.686,1.443C19.957,28.473,16.239,29.756,10.412,29.756Z" transform="translate(0 -10.667)"/></g></svg>
