<svg xmlns="http://www.w3.org/2000/svg" width="22.249" height="22.137" viewBox="0 0 22.249 22.137"><path d="M20.535,50.908a.554.554,0,0,0-.554.554v4.92a1.664,1.664,0,0,1-1.662,1.662H2.771a1.664,1.664,0,0,1-1.662-1.662V41.943A1.664,1.664,0,0,1,2.771,40.28H7.69a.554.554,0,1,0,0-1.108H2.771A2.774,2.774,0,0,0,0,41.943v14.44a2.774,2.774,0,0,0,2.771,2.771H18.318a2.774,2.774,0,0,0,2.771-2.771v-4.92A.554.554,0,0,0,20.535,50.908Zm0,0" transform="translate(0 -37.016)" fill="#fff"/><path d="M123.065.991a2.493,2.493,0,0,0-3.526,0l-9.886,9.886a.554.554,0,0,0-.142.244l-1.3,4.693a.554.554,0,0,0,.682.682l4.693-1.3a.554.554,0,0,0,.244-.142l9.885-9.886a2.5,2.5,0,0,0,0-3.526Zm-12.2,10.246,8.091-8.091,2.609,2.609-8.091,8.091Zm-.521,1.046,2.085,2.085-2.884.8Zm12.593-7.9-.588.588-2.61-2.61.588-.588a1.385,1.385,0,0,1,1.959,0l.65.65A1.387,1.387,0,0,1,122.931,4.384Zm0,0" transform="translate(-102.195 -0.261)" fill="#fff"/></svg>