<svg xmlns="http://www.w3.org/2000/svg" width="22.21" height="16.902" viewBox="0 0 22.21 16.902"><g transform="translate(0 0)"><path d="M19.5,57.75H2.716A2.718,2.718,0,0,0,0,60.466v11.47a2.718,2.718,0,0,0,2.716,2.716H19.494a2.718,2.718,0,0,0,2.716-2.716V60.471A2.715,2.715,0,0,0,19.5,57.75Zm1.475,14.186A1.477,1.477,0,0,1,19.5,73.411H2.716a1.477,1.477,0,0,1-1.475-1.475V60.471A1.477,1.477,0,0,1,2.716,59H19.494a1.477,1.477,0,0,1,1.475,1.475V71.936Z" transform="translate(0 -57.75)" fill="#fff"/><path d="M67.2,114.86l5.432-4.871a.622.622,0,1,0-.832-.924l-7.491,6.723-1.461-1.305s-.009-.009-.009-.014a.919.919,0,0,0-.1-.087l-5.947-5.322a.622.622,0,0,0-.827.928l5.5,4.913-5.473,5.124a.623.623,0,0,0-.028.878.635.635,0,0,0,.455.2.622.622,0,0,0,.423-.165l5.556-5.2,1.507,1.346a.619.619,0,0,0,.827,0l1.549-1.388L71.8,120.94a.622.622,0,0,0,.878-.023.623.623,0,0,0-.023-.878Z" transform="translate(-53.19 -106.552)" fill="#fff"/></g></svg>