<svg
  xmlns="http://www.w3.org/2000/svg"
  xmlns:xlink="http://www.w3.org/1999/xlink"
  width="182px" height="182px">
  <path fill-rule="evenodd"  fill="rgb(71, 216, 0)"
        d="M40.925,86.397 L53.657,73.664 L81.849,101.857 L160.061,23.645 L172.793,36.377 L81.849,127.321 L40.925,86.397 ZM90.944,18.189 C50.928,18.189 18.189,50.929 18.189,90.944 C18.189,130.959 50.928,163.699 90.944,163.699 C130.959,163.699 163.699,130.959 163.699,90.944 L181.888,90.944 C181.888,140.963 140.963,181.888 90.944,181.888 C40.925,181.888 -0.000,140.963 -0.000,90.944 C-0.000,40.925 40.925,-0.000 90.944,-0.000 C102.766,-0.000 114.589,2.728 125.503,6.366 L110.951,20.917 C104.585,19.098 98.219,18.189 90.944,18.189 Z"/>
</svg>
