<svg xmlns="http://www.w3.org/2000/svg" width="18.165" height="18.166" viewBox="0 0 18.165 18.166"><path d="M18.273,8.448,15.355,6.989l2.917-1.459a.71.71,0,0,0,0-1.269L9.9.074a.71.71,0,0,0-.635,0L.891,4.261a.71.71,0,0,0,0,1.269L3.808,6.989.891,8.448a.71.71,0,0,0,0,1.269l2.917,1.459L.891,12.635a.71.71,0,0,0,0,1.269l8.373,4.187a.71.71,0,0,0,.635,0L18.273,13.9a.71.71,0,0,0,0-1.269l-2.917-1.459,2.917-1.459a.71.71,0,0,0,0-1.269ZM9.582,1.5,16.368,4.9,9.582,8.289,2.8,4.9Zm6.787,11.767L9.582,16.663,2.8,13.269l2.6-1.3L9.264,13.9a.71.71,0,0,0,.635,0l3.869-1.935Zm-6.787-.793L2.8,9.083l2.6-1.3L9.264,9.717a.71.71,0,0,0,.635,0l3.869-1.935,2.6,1.3Zm0,0" transform="translate(-0.499 0)" fill="#fff"/></svg>