<svg
  xmlns="http://www.w3.org/2000/svg"
  xmlns:xlink="http://www.w3.org/1999/xlink"
  width="32px" height="32px">
  <path fill-rule="evenodd"
        d="M31.398,22.568 L31.398,26.320 L29.962,26.687 C29.952,26.711 29.942,26.735 29.931,26.759 L30.688,28.034 L28.035,30.687 L26.760,29.931 C26.736,29.941 26.712,29.951 26.687,29.961 L26.320,31.398 L22.569,31.398 L22.201,29.962 C22.178,29.952 22.153,29.942 22.129,29.931 L20.854,30.688 L18.201,28.035 L18.957,26.760 C18.947,26.736 18.937,26.712 18.927,26.687 L17.490,26.320 L17.490,22.569 L18.927,22.201 C18.936,22.178 18.947,22.153 18.957,22.129 L18.200,20.854 L20.853,18.201 L22.128,18.957 C22.152,18.947 22.177,18.937 22.201,18.927 L22.568,17.490 L26.320,17.490 L26.687,18.927 C26.711,18.937 26.735,18.946 26.759,18.957 L28.034,18.201 L30.687,20.853 L29.931,22.128 C29.941,22.152 29.951,22.177 29.961,22.201 L31.398,22.568 ZM29.439,21.010 L27.877,19.449 L26.816,20.078 L26.577,19.964 C26.423,19.891 26.266,19.825 26.103,19.768 L25.853,19.679 L25.548,18.484 L23.339,18.484 L23.035,19.680 L22.784,19.769 C22.622,19.826 22.465,19.892 22.311,19.965 L22.072,20.079 L21.010,19.449 L19.449,21.011 L20.078,22.072 L19.964,22.311 C19.891,22.465 19.825,22.623 19.768,22.785 L19.679,23.035 L18.483,23.340 L18.483,25.549 L19.680,25.854 L19.768,26.104 C19.826,26.266 19.892,26.424 19.965,26.577 L20.079,26.816 L19.449,27.878 L21.011,29.440 L22.072,28.810 L22.311,28.924 C22.465,28.998 22.623,29.064 22.785,29.120 L23.035,29.209 L23.340,30.405 L25.549,30.405 L25.854,29.209 L26.104,29.120 C26.266,29.063 26.423,28.997 26.577,28.924 L26.816,28.810 L27.878,29.440 L29.440,27.878 L28.810,26.816 L28.924,26.577 C28.998,26.424 29.063,26.266 29.120,26.104 L29.209,25.853 L30.405,25.548 L30.405,23.339 L29.209,23.035 L29.120,22.784 C29.062,22.622 28.997,22.465 28.924,22.311 L28.809,22.072 L29.439,21.010 Z"/>
  <path fill-rule="evenodd"
        d="M24.444,28.418 C22.253,28.418 20.470,26.635 20.470,24.444 C20.470,22.253 22.253,20.470 24.444,20.470 C26.635,20.470 28.418,22.253 28.418,24.444 C28.418,26.635 26.635,28.418 24.444,28.418 ZM24.444,21.464 C22.800,21.464 21.464,22.800 21.464,24.444 C21.464,26.088 22.800,27.425 24.444,27.425 C26.088,27.425 27.424,26.088 27.424,24.444 C27.424,22.800 26.088,21.464 24.444,21.464 Z"/>
  <path fill-rule="evenodd"
        d="M24.444,26.431 C23.348,26.431 22.457,25.540 22.457,24.444 C22.457,23.348 23.348,22.457 24.444,22.457 C25.540,22.457 26.431,23.348 26.431,24.444 C26.431,25.540 25.540,26.431 24.444,26.431 ZM24.444,23.451 C23.896,23.451 23.451,23.896 23.451,24.444 C23.451,24.992 23.896,25.438 24.444,25.438 C24.992,25.438 25.438,24.992 25.438,24.444 C25.438,23.896 24.992,23.451 24.444,23.451 Z"/>
  <path fill-rule="evenodd"
        d="M10.039,16.497 L10.039,13.900 C10.039,12.870 10.687,11.936 11.651,11.575 L14.013,10.689 L14.013,10.268 C13.637,9.930 13.348,9.500 13.181,9.012 C12.245,8.852 11.530,8.040 11.530,7.059 L11.530,5.072 C11.530,2.608 13.535,0.602 16.000,0.602 C18.465,0.602 20.470,2.608 20.470,5.072 L20.470,7.059 C20.470,8.040 19.755,8.852 18.819,9.012 C18.652,9.500 18.363,9.930 17.987,10.268 L17.987,10.689 L20.349,11.574 C21.313,11.936 21.961,12.870 21.961,13.900 L21.961,16.497 L10.039,16.497 ZM13.660,11.882 L14.303,13.809 L15.298,13.312 L14.296,11.643 L13.660,11.882 ZM16.000,12.551 L16.993,10.895 L16.993,10.859 C16.682,10.969 16.349,11.033 16.000,11.033 C15.651,11.033 15.318,10.970 15.007,10.859 L15.007,10.895 L16.000,12.551 ZM14.013,8.052 C14.013,9.148 14.904,10.039 16.000,10.039 C17.096,10.039 17.987,9.148 17.987,8.052 L17.987,6.032 C17.260,5.955 16.574,5.691 16.000,5.239 C15.426,5.690 14.740,5.955 14.013,6.032 L14.013,8.052 ZM13.020,7.914 L13.020,6.204 C12.724,6.376 12.523,6.693 12.523,7.059 C12.523,7.425 12.724,7.742 13.020,7.914 ZM18.980,7.914 C19.276,7.742 19.477,7.426 19.477,7.060 C19.477,6.693 19.276,6.376 18.980,6.204 L18.980,7.914 ZM18.398,5.072 L18.483,5.072 C18.847,5.072 19.184,5.177 19.477,5.348 L19.477,5.072 C19.477,3.155 17.917,1.595 16.000,1.595 C14.083,1.595 12.523,3.155 12.523,5.072 L12.523,5.348 C12.816,5.177 13.153,5.072 13.516,5.072 L13.602,5.072 C14.375,5.072 15.102,4.771 15.649,4.224 L16.000,3.873 L16.351,4.224 C16.898,4.771 17.625,5.072 18.398,5.072 ZM17.703,11.643 L16.702,13.312 L17.697,13.809 L18.339,11.882 L17.703,11.643 ZM20.967,13.900 C20.967,13.282 20.579,12.721 20.001,12.505 L19.270,12.231 L18.277,15.210 L16.000,14.072 L13.723,15.210 L12.730,12.231 L12.000,12.505 C11.421,12.721 11.033,13.282 11.033,13.900 L11.033,15.503 L20.967,15.503 L20.967,13.900 Z"/>
  <path fill-rule="evenodd"
        d="M0.602,31.398 L0.602,18.484 L10.536,18.484 L10.536,31.398 L0.602,31.398 ZM9.543,19.477 L1.595,19.477 L1.595,30.405 L9.543,30.405 L9.543,19.477 Z"/>
  <path fill-rule="evenodd"
        d="M2.588,20.470 L8.549,20.470 L8.549,21.464 L2.588,21.464 L2.588,20.470 Z"/>
  <path fill-rule="evenodd"
        d="M2.588,22.457 L3.582,22.457 L3.582,23.451 L2.588,23.451 L2.588,22.457 Z"/>
  <path fill-rule="evenodd"
        d="M4.575,22.457 L8.549,22.457 L8.549,23.451 L4.575,23.451 L4.575,22.457 Z"/>
  <path fill-rule="evenodd"
        d="M2.588,24.444 L8.549,24.444 L8.549,25.438 L2.588,25.438 L2.588,24.444 Z"/>
  <path fill-rule="evenodd"
        d="M2.588,26.431 L8.549,26.431 L8.549,27.425 L2.588,27.425 L2.588,26.431 Z"/>
  <path fill-rule="evenodd"
        d="M7.556,28.418 L8.549,28.418 L8.549,29.411 L7.556,29.411 L7.556,28.418 Z"/>
  <path fill-rule="evenodd"
        d="M2.588,28.418 L6.562,28.418 L6.562,29.411 L2.588,29.411 L2.588,28.418 Z"/>
  <path fill-rule="evenodd"
        d="M13.867,22.809 L13.165,22.106 L10.827,24.444 L13.165,26.782 L13.867,26.080 L12.728,24.941 L16.497,24.941 L16.497,23.947 L12.728,23.947 L13.867,22.809 Z"/>
  <path fill-rule="evenodd"
        d="M6.066,8.549 C6.066,8.276 6.288,8.052 6.562,8.052 L8.840,8.052 L7.701,9.191 L8.404,9.894 L10.742,7.556 L8.404,5.218 L7.701,5.920 L8.840,7.059 L6.562,7.059 C5.741,7.059 5.072,7.728 5.072,8.549 L5.072,17.490 L6.066,17.490 L6.066,8.549 Z"/>
  <path fill-rule="evenodd"
        d="M24.444,8.549 L24.444,14.801 L23.305,13.662 L22.603,14.364 L24.941,16.702 L27.279,14.364 L26.576,13.662 L25.438,14.801 L25.438,8.549 C25.438,7.728 24.769,7.059 23.947,7.059 L21.464,7.059 L21.464,8.052 L23.947,8.052 C24.222,8.052 24.444,8.276 24.444,8.549 Z"/>
</svg>
