<svg xmlns="http://www.w3.org/2000/svg" width="19.001" height="19" viewBox="0 0 19.001 19"><path d="M20.946,8.207a1.583,1.583,0,0,0-2.479-.855V2.95a.95.95,0,0,0-.95-.95H9.283a.317.317,0,0,0-.224.093L7.886,3.267H2.95a.95.95,0,0,0-.95.95v13.3a.95.95,0,0,0,.95.95H3.9v.317a.95.95,0,0,0,.95.95h7.34l-.056.931a.317.317,0,0,0,.491.283l1.9-1.253a.309.309,0,0,0,.145.039h2.85a.95.95,0,0,0,.95-.95V13.429l2.321-4.022A1.572,1.572,0,0,0,20.946,8.207ZM19.171,7.7A.95.95,0,0,1,20.24,9.093l-.158.274-1.647-.95.158-.274a.945.945,0,0,1,.578-.443Zm.593,2.217-.317.548L17.8,9.515l.317-.548ZM8.967,3.081V6.75a.317.317,0,0,1-.317.317H4.981ZM3.993,7.16a.317.317,0,0,0-.093.224v10.45H2.95a.317.317,0,0,1-.317-.317V4.217A.317.317,0,0,1,2.95,3.9h4.3ZM12.346,17.7a.317.317,0,0,0-.042.139L12.228,19.1H4.85a.317.317,0,0,1-.317-.317V7.7H8.65a.95.95,0,0,0,.95-.95V2.633h7.917a.317.317,0,0,1,.317.317V8.017a.313.313,0,0,0,.028.127ZM12.8,20.07l.055-.915a1.5,1.5,0,0,1,.707.412Zm1.3-.859a2.183,2.183,0,0,0-1.207-.7l.023-.375,1.074-.13.425,1ZM14,17.371l-.786.1,4.274-7.405.548.317Zm3.837,1.412a.317.317,0,0,1-.317.317H15.192l2.641-4.574Zm-2.977-.368-.311-.728,4.038-6.993.548.317Z" transform="translate(-2 -2)"/></svg>