<svg xmlns="http://www.w3.org/2000/svg" width="25.137" height="20.529" viewBox="0 0 25.137 20.529"><defs><style></style></defs><g transform="translate(0 4)"><path d="M218.015,81.568a3.452,3.452,0,1,0-3.452-3.452A3.452,3.452,0,0,0,218.015,81.568Zm0-5.816a2.364,2.364,0,1,1-2.364,2.364A2.364,2.364,0,0,1,218.015,75.752Zm0,0" transform="translate(-205.46 -75.089)"/><path class="a" d="M20.752,184.785H19.419a4.458,4.458,0,0,0-4.036,2.9,4.05,4.05,0,0,0-2.161-.63H11.888a4.049,4.049,0,0,0-2.151.624,4.429,4.429,0,0,0-4.018-2.889H4.385A4.629,4.629,0,0,0,0,189.615v4.634a.521.521,0,0,0,.494.544H7.5v1.721a.521.521,0,0,0,.494.544h9.115a.521.521,0,0,0,.494-.544v-1.721h7.037a.521.521,0,0,0,.494-.544v-4.634a4.629,4.629,0,0,0-4.385-4.83Zm0,1.088.073,0-.6,2.817a.286.286,0,0,1-.232.239h-.02a.282.282,0,0,1-.252-.241l-.593-2.8q.142-.013.286-.014Zm-7.531,2.265c.09,0,.18.005.268.013l-.812,2.913-.815-2.925h1.358Zm-7.5-2.265.1,0-.824,3.3-.823-3.294c.07,0,.141-.008.213-.008Zm-4.73,3.742A3.752,3.752,0,0,1,3.2,186.107L4.5,191.3v2.405H.988Zm4.5,4.09V191.3l1.306-5.231a3.623,3.623,0,0,1,2.12,2.265A5.055,5.055,0,0,0,7.5,191.88v1.825Zm3-1.825a3.727,3.727,0,0,1,2.386-3.573L12.184,193v2.97H8.491Zm8.127,4.09H13.172V193l1.283-4.606a3.758,3.758,0,0,1,2.163,3.485Zm-.416-7.629a3.688,3.688,0,0,1,1.969-2.2l.592,2.8a1.375,1.375,0,0,0,.72.968v3.8H17.606V191.88a5.055,5.055,0,0,0-1.4-3.538Zm7.947,5.363H20.472v-3.8a1.387,1.387,0,0,0,.72-.965l.61-2.882a3.732,3.732,0,0,1,2.347,3.558Zm0,0" transform="translate(0 -180.53)"/><path class="a" d="M388.9,4.475a3.451,3.451,0,0,0,1.726-6.44v-.523A1.511,1.511,0,0,0,389.116-4,1.511,1.511,0,0,0,387.6-2.488v.312a3.452,3.452,0,0,0,1.3,6.651Zm0-1.088a2.368,2.368,0,0,1-2.215-1.537,5.644,5.644,0,0,0,1.27-.373,4.934,4.934,0,0,0,1.378-.883,4.027,4.027,0,0,0,1.807,1.2,2.334,2.334,0,0,1-2.241,1.6ZM391.239.667a3.153,3.153,0,0,1-1.183-.907,4.9,4.9,0,0,0,.333-.573A2.363,2.363,0,0,1,391.239.667Zm-2.546-3.155a.423.423,0,0,1,.423-.423.423.423,0,0,1,.423.423v.118a3.452,3.452,0,0,0-.637-.06c-.07,0-.14,0-.209.007Zm.209,1.147a2.361,2.361,0,0,1,.507.056A3.863,3.863,0,0,1,386.551.772,2.367,2.367,0,0,1,388.9-1.342Zm0,0" transform="translate(-369.36)"/><path class="a" d="M47.124,35.365a3.456,3.456,0,0,0,3.452-3.442v-.01a3.452,3.452,0,1,0-3.452,3.452Zm0-5.816a2.364,2.364,0,1,1-2.364,2.364A2.367,2.367,0,0,1,47.124,29.549Zm0,0" transform="translate(-41.559 -30.891)"/><path class="a" d="M486.572,268.5h-1.028a.544.544,0,0,0,0,1.088h1.028a.544.544,0,0,0,0-1.088Zm0,0" transform="translate(-464.095 -259.888)"/><path class="a" d="M319.294,318.5a.544.544,0,0,0,0,1.088h1.028a.544.544,0,0,0,0-1.088Zm0,0" transform="translate(-304.872 -307.574)"/><path class="a" d="M143.124,265.294a.544.544,0,0,0-.544-.544h-.786a.544.544,0,1,0,0,1.088h.786A.544.544,0,0,0,143.124,265.294Zm0,0" transform="translate(-135.094 -256.311)"/></g></svg>
