<svg xmlns="http://www.w3.org/2000/svg" width="327" height="327" viewBox="0 0 327 327"><defs><style>.a{fill:#441184;}</style></defs><g transform="translate(-1 -1)"><path class="a" d="M88.161,77.95a42.194,42.194,0,1,0-47.742,0A58.079,58.079,0,0,0,1,132.855v15.823a26.4,26.4,0,0,0,26.371,26.371V306.9A21.009,21.009,0,0,0,64.29,320.711,21.009,21.009,0,0,0,101.21,306.9V211.968h5.274a21.118,21.118,0,0,0,21.1-21.1V132.855a58.079,58.079,0,0,0-39.419-54.9ZM32.645,43.194A31.645,31.645,0,1,1,64.29,74.839,31.677,31.677,0,0,1,32.645,43.194Zm84.387,147.677a10.559,10.559,0,0,1-10.548,10.548H101.21V117.032H90.661V306.9a10.548,10.548,0,1,1-21.1,0V207.975a10.5,10.5,0,0,1,3.091-7.463l5.912-5.912-7.458-7.458L65.2,193.054a20.965,20.965,0,0,0-6.181,14.921V306.9a10.548,10.548,0,1,1-21.1,0V175.048H61.653a18.46,18.46,0,1,0,0-36.919H22.1v10.548H61.653a7.911,7.911,0,0,1,0,15.823H27.371a15.842,15.842,0,0,1-15.823-15.823V132.855A47.522,47.522,0,0,1,59.016,85.387H69.565a47.522,47.522,0,0,1,47.468,47.468Z"/><path class="a" d="M62.1,78.839A10.559,10.559,0,0,1,51.548,68.29H41A21.073,21.073,0,0,0,56.823,88.638v11.3H67.371V89.387H83.194V68.29a21.118,21.118,0,0,0-21.1-21.1A10.559,10.559,0,0,1,51.548,36.645V26.1H62.1A10.559,10.559,0,0,1,72.645,36.645H83.194A21.073,21.073,0,0,0,67.371,16.3V5H56.823V15.548H41v21.1a21.118,21.118,0,0,0,21.1,21.1A10.559,10.559,0,0,1,72.645,68.29V78.839Z" transform="translate(170.968 17.097)"/><path class="a" d="M100.565,138.129A68.565,68.565,0,1,0,32,69.565,68.644,68.644,0,0,0,100.565,138.129Zm0-126.581A58.016,58.016,0,1,1,42.548,69.565,58.085,58.085,0,0,1,100.565,11.548Z" transform="translate(132.5)"/><path class="a" d="M201.048,43.274H137.6a25.883,25.883,0,0,0-31.318,0H42.823A15.842,15.842,0,0,0,27,59.1V69.645A15.842,15.842,0,0,0,42.823,85.468h.617L47.9,121.121l-1.609,1.936a15.759,15.759,0,0,0,4.821,23.776L52.258,156a15.847,15.847,0,0,0,15.7,13.855H175.917A15.848,15.848,0,0,0,191.618,156l1.15-9.161a15.742,15.742,0,0,0,4.763-23.86l-1.551-1.862,4.451-35.648h.617a15.842,15.842,0,0,0,15.823-15.823V59.1a15.842,15.842,0,0,0-15.823-15.823Zm-11.7,86.365a5.278,5.278,0,0,1-.812,7.4,5.4,5.4,0,0,1-7.489-.891L138.317,84.872a26.446,26.446,0,0,0,6.841-8.265ZM121.941,48.548a15.823,15.823,0,1,1-15.823,15.823A15.842,15.842,0,0,1,121.941,48.548ZM55.354,137.055a5.258,5.258,0,0,1-.891-7.331L98.724,76.612a26.374,26.374,0,0,0,6.841,8.265L62.78,136.232A5.433,5.433,0,0,1,55.354,137.055ZM37.548,69.645V59.1a5.28,5.28,0,0,1,5.274-5.274H97.806a26.211,26.211,0,0,0-2.184,10.032L86.4,74.919H42.823a5.28,5.28,0,0,1-5.274-5.274ZM54.072,85.468H77.611L57.142,110.03Zm121.839,73.839H158.855V127.661H148.306v31.645H137.758V127.661H127.21v31.645H116.661V127.661H106.113v31.645H95.565V127.661H85.016v31.645H67.959a5.278,5.278,0,0,1-5.232-4.62l-.786-6.292a15.633,15.633,0,0,0,9-5.485l44.282-53.143a23.606,23.606,0,0,0,13.433,0l44.224,53.069a15.769,15.769,0,0,0,9.051,5.554l-.791,6.3a5.278,5.278,0,0,1-5.232,4.62Zm10.823-49.287L166.27,85.468H189.8Zm19.588-40.374a5.28,5.28,0,0,1-5.274,5.274h-43.57l-9.219-11.06a26.14,26.14,0,0,0-2.184-10.037h54.973a5.28,5.28,0,0,1,5.274,5.274Z" transform="translate(111.129 158.145)"/><path class="a" d="M47,29H57.548V50.1H47Z" transform="translate(196.613 119.677)"/><path class="a" d="M47,35H57.548V45.548H47Z" transform="translate(196.613 145.323)"/><path class="a" d="M41,33H51.548V54.1H41Z" transform="translate(170.968 136.774)"/><path class="a" d="M41,29H51.548V39.548H41Z" transform="translate(170.968 119.677)"/><path class="a" d="M51,27V63.919A15.842,15.842,0,0,0,66.823,79.742H72.1V69.194H66.823a5.279,5.279,0,0,1-5.274-5.274V27Z" transform="translate(213.71 111.129)"/><path class="a" d="M57,35H67.548V45.548H57Z" transform="translate(239.355 145.323)"/><path class="a" d="M40.274,69.194H35V79.742h5.274A15.842,15.842,0,0,0,56.1,63.919V27H45.548V63.919A5.28,5.28,0,0,1,40.274,69.194Z" transform="translate(145.323 111.129)"/><path class="a" d="M31,35H41.548V45.548H31Z" transform="translate(128.226 145.323)"/></g></svg>