<svg xmlns="http://www.w3.org/2000/svg" width="23.514" height="20.667" viewBox="0 0 23.514 20.667"><defs><style></style></defs><g transform="translate(0 0)"><path d="M7.576,13.778H20.07a.689.689,0,0,0,.662-.5l2.756-9.645a.689.689,0,0,0-.662-.878H5.987L5.495.54A.689.689,0,0,0,4.822,0H.689a.689.689,0,0,0,0,1.378H4.27L6.757,12.571a2.066,2.066,0,0,0,.821,3.963H20.07a.689.689,0,1,0,0-1.378H7.578a.689.689,0,0,1,0-1.378ZM21.912,4.134,19.55,12.4H8.13L6.293,4.134Zm0,0"/><path class="a" d="M150,362.067A2.067,2.067,0,1,0,152.067,360,2.069,2.069,0,0,0,150,362.067Zm2.067-.689a.689.689,0,1,1-.689.689A.69.69,0,0,1,152.067,361.378Zm0,0" transform="translate(-143.111 -343.466)"/><path class="a" d="M362,362.067A2.067,2.067,0,1,0,364.067,360,2.069,2.069,0,0,0,362,362.067Zm2.067-.689a.689.689,0,1,1-.689.689A.69.69,0,0,1,364.067,361.378Zm0,0" transform="translate(-345.375 -343.466)"/></g></svg>
