<svg xmlns="http://www.w3.org/2000/svg" width="24.208" height="18.706" viewBox="0 0 24.208 18.706"><defs><style></style></defs><g transform="translate(0 -53.333)"><g transform="translate(2.845 55.034)"><g transform="translate(0 0)"><path d="M74.943,91.462l-4.137-4.547a2.106,2.106,0,0,0-2.979.007,2.059,2.059,0,0,0-.533.91,2.108,2.108,0,0,0-3.3,1.1,2.109,2.109,0,0,0-2.767.191,2.083,2.083,0,0,0-.528.888l-1.95-1.95a2.106,2.106,0,0,0-2.979,2.979l7.491,7.491-4.443.7a2.465,2.465,0,0,0-2.106,2.429,1.653,1.653,0,0,0,1.651,1.651H68.736a6.012,6.012,0,0,0,4.279-1.773L74.746,99.8a6.045,6.045,0,0,0,.2-8.342Zm-.975,7.564-1.731,1.731a4.919,4.919,0,0,1-3.5,1.45H58.36a.55.55,0,0,1-.55-.55,1.361,1.361,0,0,1,1.17-1.34L64.5,99.45a.55.55,0,0,0,.3-.932l-8.256-8.256a1.006,1.006,0,0,1,1.423-1.423l5.505,5.505a.55.55,0,1,0,.777-.779L62,91.317a1.006,1.006,0,0,1,1.423-1.423l2.249,2.249a.55.55,0,1,0,.777-.779L65.3,90.217a1.006,1.006,0,0,1,1.423-1.423l1.153,1.153s0,0,0,0h0a0,0,0,0,1,0,0,.55.55,0,0,0,.767-.789l-.047-.047a1.006,1.006,0,0,1,1.4-1.441L74.13,92.2a4.945,4.945,0,0,1-.162,6.823Z" transform="translate(-55.153 -86.302)"/></g></g><g transform="translate(0 53.333)"><g transform="translate(0 0)"><path class="a" d="M9.459,56.252a4.947,4.947,0,1,0-6.539,6.541.551.551,0,0,0,.453-1,3.846,3.846,0,1,1,5.084-5.084.55.55,0,1,0,1-.453Z" transform="translate(0 -53.333)"/></g></g></g></svg>
