<svg
  xmlns="http://www.w3.org/2000/svg"
  xmlns:xlink="http://www.w3.org/1999/xlink"
  width="109px" height="59px">
  <path fill-rule="evenodd"  fill="rgb(255, 255, 255)"
        d="M20.759,48.130 L20.742,48.130 C19.866,48.130 19.164,48.841 19.164,49.717 C19.164,50.593 19.883,51.304 20.759,51.304 C21.636,51.304 22.346,50.593 22.346,49.717 C22.346,48.841 21.636,48.130 20.759,48.130 Z"/>
  <path fill-rule="evenodd"  fill="rgb(255, 255, 255)"
        d="M34.327,48.130 L34.310,48.130 C33.434,48.130 32.732,48.841 32.732,49.717 C32.732,50.593 33.451,51.304 34.327,51.304 C35.203,51.304 35.914,50.593 35.914,49.717 C35.914,48.841 35.203,48.130 34.327,48.130 Z"/>
  <path fill-rule="evenodd"  fill="rgb(255, 255, 255)"
        d="M90.294,48.130 L90.277,48.130 C89.401,48.130 88.699,48.841 88.699,49.717 C88.699,50.593 89.418,51.304 90.294,51.304 C91.170,51.304 91.881,50.593 91.881,49.717 C91.881,48.841 91.170,48.130 90.294,48.130 Z"/>
  <path fill-rule="evenodd"  fill="rgb(255, 255, 255)"
        d="M105.541,49.609 L98.645,49.609 C98.645,49.645 98.647,49.681 98.647,49.717 C98.647,54.332 94.892,58.087 90.277,58.087 C86.204,58.087 82.803,55.163 82.059,51.304 L42.528,51.304 C41.784,55.163 38.383,58.087 34.310,58.087 C31.521,58.087 29.048,56.715 27.526,54.612 C26.004,56.715 23.531,58.087 20.742,58.087 C16.669,58.087 13.268,55.163 12.524,51.304 L8.870,51.304 C7.060,51.304 5.588,49.831 5.588,48.021 L5.588,44.521 L3.783,44.521 C1.972,44.521 0.500,43.048 0.500,41.238 L0.500,3.927 C0.500,2.117 1.972,0.644 3.783,0.644 L81.797,0.644 C83.608,0.644 85.080,2.117 85.080,3.927 L85.080,10.819 L100.453,10.819 C101.329,10.819 102.040,11.530 102.040,12.406 C102.040,13.115 101.575,13.715 100.934,13.918 L105.232,26.813 L107.365,28.946 C108.306,29.887 108.823,31.137 108.823,32.466 L108.823,46.326 C108.823,48.136 107.351,49.609 105.541,49.609 ZM34.310,54.914 C37.176,54.914 39.507,52.583 39.507,49.717 C39.507,46.862 37.193,44.539 34.343,44.521 L34.278,44.521 C31.427,44.539 29.113,46.863 29.113,49.717 C29.113,52.583 31.445,54.914 34.310,54.914 ZM20.742,54.914 C23.608,54.914 25.939,52.583 25.940,49.717 C25.940,46.862 23.626,44.539 20.775,44.521 L20.710,44.521 C17.859,44.539 15.545,46.863 15.545,49.717 C15.545,52.583 17.877,54.914 20.742,54.914 ZM8.761,48.021 C8.761,48.081 8.810,48.130 8.870,48.130 L12.524,48.130 C12.784,46.785 13.366,45.555 14.187,44.521 L8.761,44.521 L8.761,48.021 ZM78.406,44.521 C77.529,44.521 76.819,43.811 76.819,42.934 C76.819,42.058 77.529,41.348 78.406,41.348 L81.906,41.348 L81.906,3.927 C81.906,3.867 81.857,3.818 81.797,3.818 L3.783,3.818 C3.722,3.818 3.673,3.867 3.673,3.927 L3.673,41.238 C3.673,41.298 3.722,41.347 3.783,41.347 L71.621,41.347 C72.498,41.347 73.208,42.058 73.208,42.934 C73.208,43.810 72.498,44.521 71.621,44.521 L40.865,44.521 C41.686,45.555 42.269,46.785 42.528,48.130 L82.059,48.130 C82.318,46.785 82.901,45.555 83.722,44.521 L78.406,44.521 ZM90.277,54.914 C93.143,54.914 95.474,52.583 95.474,49.717 C95.474,46.855 93.149,44.526 90.288,44.520 C90.284,44.521 90.281,44.521 90.277,44.521 L90.245,44.521 C87.394,44.539 85.080,46.863 85.080,49.717 C85.080,52.583 87.411,54.914 90.277,54.914 ZM99.874,20.777 L91.864,20.777 L91.864,27.670 C91.864,27.730 91.913,27.779 91.973,27.779 L102.208,27.779 L99.874,20.777 ZM105.650,39.433 L103.845,39.433 C102.968,39.433 102.258,38.723 102.258,37.846 C102.258,36.970 102.968,36.260 103.845,36.260 L105.650,36.260 L105.650,32.467 C105.650,31.984 105.462,31.531 105.121,31.190 L104.883,30.952 L91.973,30.952 C90.163,30.952 88.690,29.480 88.690,27.670 L88.690,19.190 C88.690,18.313 89.401,17.603 90.277,17.603 L98.817,17.603 L97.613,13.993 L85.189,13.993 C85.129,13.993 85.080,14.042 85.080,14.102 L85.080,14.103 L85.080,41.348 L90.244,41.348 C90.255,41.348 90.266,41.347 90.277,41.347 C93.728,41.347 96.698,43.447 97.977,46.435 L105.541,46.435 C105.601,46.435 105.650,46.387 105.650,46.326 L105.650,39.433 Z"/>
  <path fill-rule="evenodd"  fill="rgb(255, 255, 255)"
        d="M76.709,34.563 L8.870,34.563 C7.994,34.563 7.284,35.274 7.284,36.150 C7.284,37.026 7.994,37.737 8.870,37.737 L76.709,37.737 C77.585,37.737 78.296,37.026 78.296,36.150 C78.296,35.274 77.585,34.563 76.709,34.563 Z"/>
</svg>
