<svg xmlns="http://www.w3.org/2000/svg" width="27.442" height="17.641" viewBox="0 0 27.442 17.641"><defs><style>.a{fill:#ff00c7;}</style></defs><path class="a" d="M50.71,119.35a3.676,3.676,0,1,0-3.742-3.675A3.72,3.72,0,0,0,50.71,119.35Zm-9.979,0a3.676,3.676,0,1,0-3.742-3.675A3.72,3.72,0,0,0,40.731,119.35Zm0,2.7c-2.931,0-8.731,1.409-8.731,4.288v3.308H49.641v-3.308C49.641,123.454,43.663,122.046,40.731,122.046Zm9.979.674a6.655,6.655,0,0,0-1.069.061c1.435,1.041,1.96,1.715,1.96,3.553v3.308h7.84v-3.308C59.442,123.454,53.642,122.72,50.71,122.72Z" transform="translate(-32 -112)"/></svg>